<svg width="709" height="122" viewBox="0 0 709 122" fill="none" xmlns="http://www.w3.org/2000/svg">
<path fill-rule="evenodd" clip-rule="evenodd" d="M215.12 64.85C215.12 80.0441 225.307 90.7101 239.15 90.7101C252.992 90.7101 263.283 79.9827 263.283 64.85C263.283 49.7173 252.992 39.0943 239.15 39.0943C225.307 39.0943 215.12 49.6559 215.12 64.85ZM262.908 33.1346C262.706 31.7829 262.534 30.0565 262.534 25.5529H262.503V0H283.012V106.678H263.99V102.445C263.99 98.8571 264.162 96.3872 264.328 94.6239H263.75C258.405 104.03 247.573 109.277 234.916 109.277C210.887 109.277 194.169 91.0665 194.169 65.108C194.169 39.1496 211.465 20.9388 235.764 20.9388C247.241 20.9388 257.932 25.5406 262.263 33.1223H262.908V33.1346Z" fill="#192B37"/>
<path fill-rule="evenodd" clip-rule="evenodd" d="M344.777 90.9743C330.965 90.9743 320.815 80.21 320.815 65.0835C320.815 49.9569 330.971 39.4261 344.777 39.4261C358.582 39.4261 368.843 50.0184 368.843 65.0835C368.843 80.1486 358.791 90.9743 344.777 90.9743ZM369.887 35.1744V35.2297H369.316C365.083 27.3101 355 21.3197 341.631 21.3197C317.565 21.3197 299.932 39.5612 299.932 65.3845C299.932 91.2078 316.619 109.419 340.783 109.419C354.048 109.419 364.677 103.428 369.316 94.3904H369.893C369.721 96.3196 369.586 98.6236 369.586 102.31V106.844H388.54V23.8879H369.586V27.5743C369.586 31.9488 369.752 33.7244 369.887 35.1683V35.1744Z" fill="#192B37"/>
<path fill-rule="evenodd" clip-rule="evenodd" d="M516.238 65.0835C516.238 80.21 526.394 90.9743 540.2 90.9743C554.005 90.9743 564.266 80.1424 564.266 65.0835C564.266 50.0245 554.011 39.4261 540.2 39.4261C526.388 39.4261 516.238 49.9508 516.238 65.0835ZM565.009 27.5805V23.894H583.963V106.814H565.009V102.279C565.009 98.5929 565.144 96.2889 565.316 94.3597H564.739C560.1 103.398 549.477 109.388 536.206 109.388C512.042 109.388 495.355 91.1463 495.355 65.3538C495.355 39.5613 512.988 21.3197 537.054 21.3197C550.423 21.3197 560.512 27.3101 564.739 35.2297H565.316V35.1744C565.175 33.7306 565.009 31.9611 565.009 27.5805Z" fill="#192B37"/>
<path d="M443.437 81.6661C444.181 84.2405 447.806 84.2405 448.512 81.6661L448.549 81.6354C449.33 78.8276 469.464 23.9309 469.464 23.9309H492.006L457.384 106.887H434.572L399.95 23.9309H422.628C422.628 23.9309 442.596 78.8645 443.444 81.6723L443.437 81.6661Z" fill="#192B37"/>
<path d="M139.278 20.9511C116.84 20.9511 100.866 35.8073 100.866 56.3897V106.715H121.749V57.8765C121.749 46.9464 129.3 40.0405 139.352 40.0405C149.404 40.0405 156.881 47.0139 156.881 57.8765V106.715H177.764V56.5924C177.764 35.8441 161.722 20.9203 139.284 20.9203V20.9511H139.278Z" fill="#192B37"/>
<path fill-rule="evenodd" clip-rule="evenodd" d="M43.6593 39.4322C31.8444 39.4322 23.7589 46.7743 21.5225 58.4848H64.4752C62.9515 47.1491 55.4742 39.4322 43.6593 39.4322ZM0 65.3906C0 39.6657 18.4443 21.3258 44.1017 21.3258L44.0709 21.3566C68.4074 21.3566 84.818 39.8377 84.818 65.3906C84.818 67.5595 84.6828 70.2628 84.2405 72.1921H21.4917C23.8633 84.007 31.7461 91.0112 45.0479 91.0112C54.6939 91.0112 63.0559 88.572 69.415 82.0102L79.0979 96.4609C71.6883 104.755 59.0931 109.425 44.4089 109.425C18.346 109.425 0.00615001 91.1156 0.00615001 65.3906H0Z" fill="#192B37"/>
<path d="M661.163 23.4271L653.544 15.8577C645.68 8.04865 632.943 8.04865 625.085 15.8577L623.518 17.4121C615.654 25.2211 615.654 37.8839 623.518 45.6868L623.942 46.1108C627.438 49.5821 631.715 52.1565 636.372 53.8215C656.948 61.1759 656.506 71.0985 636.243 78.0043C631.69 79.5526 627.506 82.0348 624.096 85.414L623.512 85.9915C615.648 93.8006 615.648 106.463 623.512 114.266L625.079 115.821C632.943 123.63 645.68 123.63 653.538 115.821L661.157 108.251C669.015 100.442 669.015 87.7794 661.157 79.9765C653.292 72.1675 653.292 59.5047 661.157 51.7018C669.015 43.8928 669.015 31.23 661.157 23.4271H661.163Z" fill="#FF5640"/>
<path d="M663.473 65.8453C663.473 72.53 676.308 86.9377 687.772 86.9377C699.237 86.9377 709 77.4943 709 65.8453C709 54.1963 699.501 44.753 687.772 44.753L663.473 65.8453Z" fill="#FF5640"/>
<path d="M663.473 65.8453C663.473 59.1606 676.308 44.753 687.772 44.753C699.237 44.753 709 54.1963 709 65.8453C709 77.4943 699.501 86.9377 687.772 86.9377L663.473 65.8453Z" fill="#FF5640"/>
</svg>
