<svg width="89" height="89" viewBox="0 0 89 89" fill="none" xmlns="http://www.w3.org/2000/svg">
<path fill-rule="evenodd" clip-rule="evenodd" d="M20.9757 43.9569C20.9757 59.1503 31.1765 69.9621 45.0431 69.9621C58.9096 69.9621 69.2154 59.0824 69.2154 43.9569C69.2154 28.8315 58.9158 18.1863 45.0431 18.1863C31.1704 18.1863 20.9757 28.7574 20.9757 43.9569ZM69.9621 6.28838V2.5857H89V85.8712H69.9621V81.3169C69.9621 77.6143 70.0978 75.3001 70.2706 73.3624H69.6906C65.0314 82.4401 54.3615 88.4569 41.0318 88.4569C16.7608 88.4569 0 70.1349 0 44.2285C0 18.3221 17.7111 0 41.8834 0C55.3118 0 65.4449 6.01684 69.6906 13.9714H70.2706V13.9159C70.1287 12.4657 69.9621 10.6884 69.9621 6.28838Z" fill="#192B37"/>
</svg>
