<svg width="89" height="110" viewBox="0 0 89 110" fill="none" xmlns="http://www.w3.org/2000/svg">
<path fill-rule="evenodd" clip-rule="evenodd" d="M20.9882 64.9651C20.9882 80.1862 31.1931 90.8711 45.0601 90.8711C58.9271 90.8711 69.2366 80.1246 69.2366 64.9651C69.2366 49.8055 58.9271 39.1637 45.0601 39.1637C31.1931 39.1637 20.9882 49.744 20.9882 64.9651ZM68.8611 33.1934C68.658 31.8394 68.4857 30.1098 68.4857 25.5983H68.4549V0H89V106.868H69.9444V102.627C69.9444 99.0325 70.1167 96.5583 70.2829 94.7918H69.7044C64.3496 104.215 53.4985 109.471 40.8193 109.471C16.7475 109.471 0 91.2281 0 65.2236C0 39.2191 17.326 20.9759 41.6687 20.9759C53.1661 20.9759 63.8756 25.586 68.2149 33.1811H68.8611V33.1934Z" fill="#192B37"/>
</svg>
