<svg width="85" height="89" viewBox="0 0 85 89" fill="none" xmlns="http://www.w3.org/2000/svg">
<path fill-rule="evenodd" clip-rule="evenodd" d="M43.753 18.1452C31.9127 18.1452 23.8099 25.5031 21.5687 37.2387H64.6135C63.0866 25.8787 55.5933 18.1452 43.753 18.1452ZM0 44.1594C0 18.3792 18.4839 0 44.1963 0L44.1655 0.0307972C68.5541 0.0307972 85 18.5516 85 44.1594C85 46.3329 84.8645 49.042 84.4212 50.9754H21.5378C23.9145 62.8157 31.8142 69.8349 45.1445 69.8349C54.8113 69.8349 63.1912 67.3904 69.5639 60.8146L79.2677 75.2963C71.8421 83.6085 59.2199 88.2879 44.5042 88.2879C18.3854 88.2879 0.0061632 69.9395 0.0061632 44.1594H0Z" fill="#192B37"/>
</svg>
