<svg width="89" height="89" viewBox="0 0 89 89" fill="none" xmlns="http://www.w3.org/2000/svg">
<path fill-rule="evenodd" clip-rule="evenodd" d="M45.0431 69.9621C31.1704 69.9621 20.9757 59.1503 20.9757 43.9569C20.9757 28.7636 31.1765 18.1863 45.0431 18.1863C58.9096 18.1863 69.2153 28.8253 69.2153 43.9569C69.2153 59.0885 59.1194 69.9621 45.0431 69.9621ZM70.2645 13.9159V13.9714H69.6905C65.4386 6.01684 55.3118 0 41.8834 0C17.7111 0 0 18.3221 0 44.2593C0 70.1966 16.7608 88.4878 41.0318 88.4878C54.3553 88.4878 65.0313 82.471 69.6905 73.3932H70.2706C70.0978 75.331 69.9621 77.6451 69.9621 81.3478V85.9021H89V2.57953H69.9621V6.2822C69.9621 10.676 70.1287 12.4595 70.2645 13.9097V13.9159Z" fill="#192B37"/>
</svg>
